# xmcd CD database file
#
# Track frame offsets:
#	150
#	11129
#	28789
#	53787
#	72091
#	102767
#	115637
#	129479
#	144940
#	171520
#	185508
#	197890
#	210496
#	225278
#	235838
#
# Disc length: 3416 seconds
#
# Revision: 0
# Processed by: cddbd v1.5.2PL0 Copyright (c) Steve Scherf et al.
# Submitted via: CDex 1.70beta2
#
DISCID=c80d560f
DTITLE=Louis Armstrong - Louis Armstrong Best
DYEAR=1940
DGENRE=Jazz
TTITLE0=Hello,Dolly
TTITLE1=Mahogany Hall Stomp
TTITLE2=Otchi-Tchor-Ni-Ya
TTITLE3=When You're Smiling
TTITLE4=On The Sunny Side Of The Street
TTITLE5=2:19 Blues
TTITLE6=C'est Si Bon
TTITLE7=La Vie En Rose
TTITLE8=Cheek To Cheek
TTITLE9=Dream A Little Dream Of Me
TTITLE10=April In Portugal
TTITLE11=Cabaret
TTITLE12=When It's Sleepy Time Down South
TTITLE13=What A Wonderful World
TTITLE14=When The Saints Go Marchin' in ~ Hello Dolly
EXTD=YEAR: 1940
EXTT0=
EXTT1=
EXTT2=
EXTT3=
EXTT4=
EXTT5=
EXTT6=
EXTT7=
EXTT8=
EXTT9=
EXTT10=
EXTT11=
EXTT12=
EXTT13=
EXTT14=
PLAYORDER=
